P3
# original.ppm
4 4
255
100 100 100 100 100 100 100 100 100 100 100 100
100 100 100 100 100 100 255 255 255 100 100 100
100 100 100 100 100 100 100 100 100 100 100 100
100 100 100 100 100 100 100 100 100 100 100 100